<svg width="15" height="15" viewBox="0 0 15 15" fill="none" xmlns="http://www.w3.org/2000/svg">
<g clip-path="url(#clip0_201_574)">
<path d="M4.42188 13.5157C4.42208 13.2837 4.5144 13.0613 4.67854 12.8973L9.15388 8.422C9.28933 8.28658 9.39679 8.1258 9.4701 7.94884C9.54341 7.77188 9.58115 7.58221 9.58115 7.39067C9.58115 7.19913 9.54341 7.00946 9.4701 6.8325C9.39679 6.65554 9.28933 6.49476 9.15388 6.35934L4.68437 1.88692C4.52499 1.7219 4.43679 1.50087 4.43879 1.27145C4.44078 1.04203 4.5328 0.822566 4.69503 0.660334C4.85727 0.498102 5.07673 0.406079 5.30615 0.404086C5.53557 0.402092 5.7566 0.490287 5.92162 0.649675L10.3911 5.11859C10.9921 5.72074 11.3296 6.53673 11.3296 7.38746C11.3296 8.2382 10.9921 9.05418 10.3911 9.65633L5.91579 14.1317C5.7936 14.2539 5.63792 14.3373 5.4684 14.3712C5.29889 14.4051 5.12313 14.388 4.96332 14.3221C4.8035 14.2562 4.66679 14.1444 4.57043 14.0009C4.47406 13.8574 4.42237 13.6885 4.42188 13.5157V13.5157Z" fill="black"/>
</g>
<defs>
<clipPath id="clip0_201_574">
<rect width="14" height="14" fill="white" transform="translate(0.875 0.390625)"/>
</clipPath>
</defs>
</svg>
