<svg width="22" height="17" viewBox="0 0 22 17" fill="none" xmlns="http://www.w3.org/2000/svg">
<path fill-rule="evenodd" clip-rule="evenodd" d="M10.4452 0.885263C9.34058 1.09923 8.63958 1.93377 8.58582 3.0989L8.56415 3.56905L8.27458 3.64253C4.58686 4.57848 1.29609 8.54418 1.29593 12.0525V12.2456H1.09098C0.590456 12.2456 0.375021 12.5238 0.41479 13.119C0.525029 14.7702 1.68264 16.1545 3.3291 16.604L3.67474 16.6983H10.7705H17.8663L18.1969 16.61C19.7424 16.1972 20.8317 15.0726 21.144 13.5672C21.3318 12.6622 21.1386 12.2456 20.5314 12.2456H20.3264V12.078C20.3264 8.51933 16.7521 4.26614 13.2056 3.60475L13.0585 3.57734L13.0375 3.10305C12.9741 1.67503 11.7546 0.631645 10.4452 0.885263ZM11.157 2.14713C11.5468 2.27998 11.8278 2.69336 11.8278 3.13411V3.32003H10.8112H9.79458V3.13411C9.79458 2.40376 10.4713 1.91352 11.157 2.14713ZM12.1124 4.62032C15.827 5.23796 19.1065 8.73944 19.1065 12.0879V12.2456H10.8112H2.51583L2.51599 12.0932C2.52067 7.73213 7.50133 3.85361 12.1124 4.62032ZM19.8998 13.557C19.686 14.3247 18.9514 15.0712 18.1266 15.3592L17.7849 15.4784L10.9034 15.4892C3.21264 15.5014 3.71707 15.5195 3.08776 15.2092C2.4702 14.9047 1.857 14.1733 1.71952 13.5774L1.69374 13.4656H10.8095H19.9253L19.8998 13.557Z" fill="#FF6338"/>
</svg>
