<svg width="124" height="123" viewBox="0 0 124 123" fill="none" xmlns="http://www.w3.org/2000/svg">
<rect x="26.7578" y="0.169922" width="100" height="100" rx="20" transform="rotate(15 26.7578 0.169922)" fill="#FFE8C8" fill-opacity="0.5"/>
<rect x="11.875" y="11.1699" width="100" height="100" rx="20" fill="#FFE8C8"/>
<g clip-path="url(#clip0_228_591)">
<path d="M53.3789 86.8697H34.6875C33.7491 86.8697 32.9883 86.1089 32.9883 85.1705V64.7798C32.9883 63.8414 33.7491 63.0806 34.6875 63.0806H53.3789C54.3173 63.0806 55.0781 63.8414 55.0781 64.7798V85.1705C55.0781 86.1089 54.3173 86.8697 53.3789 86.8697Z" fill="#FB9333"/>
<path d="M53.3789 63.0806H43.1836V86.8697H53.3789C54.3173 86.8697 55.0781 86.1089 55.0781 85.1705V64.7798C55.0781 63.8414 54.3173 63.0806 53.3789 63.0806Z" fill="#FB9333"/>
<path d="M85.3425 42.5221L80.7929 40.7096L75.7902 42.5221L74.3476 54.7845C74.2909 55.2664 74.4429 55.7496 74.7653 56.1122C75.0877 56.4748 75.5499 56.6822 76.0351 56.6822H85.0976C85.5828 56.6822 86.0449 56.4748 86.3674 56.1122C86.6899 55.7496 86.8418 55.2664 86.7852 54.7845L85.3425 42.5221Z" fill="#FB9333"/>
<path d="M86.7852 54.7845L85.3426 42.5221L80.793 40.7096L80.5664 40.7917V56.6822H85.0977C85.5828 56.6822 86.0449 56.4748 86.3674 56.1122C86.6899 55.7496 86.8419 55.2663 86.7852 54.7845Z" fill="#FB9333"/>
<path d="M57.3554 54.7845C57.2987 55.2664 57.4508 55.7496 57.7732 56.1122C58.0956 56.4748 58.5577 56.6822 59.0429 56.6822H68.1054C68.5906 56.6822 69.0527 56.4748 69.3752 56.1122C69.6977 55.7496 69.8496 55.2664 69.793 54.7845L68.3503 42.5221L63.6875 39.8033L58.798 42.5221L57.3554 54.7845Z" fill="#FB9333"/>
<path d="M69.793 54.7845L68.3504 42.5221L63.6875 39.8033L63.5742 39.8663V56.6822H68.1055C68.5907 56.6822 69.0527 56.4748 69.3752 56.1122C69.6978 55.7496 69.8497 55.2663 69.793 54.7845Z" fill="#FB9333"/>
<path d="M84.5204 35.5267C84.4198 34.6709 83.6944 34.026 82.8328 34.026H78.3016C77.4399 34.026 76.7146 34.6709 76.614 35.5267L75.791 42.5221H85.3435L84.5204 35.5267Z" fill="#FFAC37"/>
<path d="M84.5196 35.5267C84.419 34.6709 83.6936 34.026 82.832 34.026H80.5664V42.5221H85.3426L84.5196 35.5267Z" fill="#FFAC37"/>
<path d="M65.8406 34.026H61.3094C60.4478 34.026 59.7224 34.6709 59.6218 35.5267L58.7988 42.5221H68.3513L67.5283 35.5267C67.4276 34.6709 66.7022 34.026 65.8406 34.026Z" fill="#FFAC37"/>
<path d="M67.5274 35.5267C67.4268 34.6709 66.7015 34.026 65.8398 34.026H63.5742V42.5221H68.3504L67.5274 35.5267Z" fill="#FFAC37"/>
<path d="M39.7852 76.6744C38.8467 76.6744 38.0859 75.9136 38.0859 74.9752V71.5767C38.0859 70.6383 38.8467 69.8775 39.7852 69.8775C40.7236 69.8775 41.4844 70.6383 41.4844 71.5767V74.9752C41.4844 75.9136 40.7236 76.6744 39.7852 76.6744Z" fill="#FFF8EE"/>
<path d="M46.582 76.6744C45.6436 76.6744 44.8828 75.9136 44.8828 74.9752V71.5767C44.8828 70.6383 45.6436 69.8775 46.582 69.8775C47.5205 69.8775 48.2812 70.6383 48.2812 71.5767V74.9752C48.2812 75.9136 47.5205 76.6744 46.582 76.6744Z" fill="white"/>
<path d="M77.168 86.8697H89.0625C90.0009 86.8697 90.7617 86.1089 90.7617 85.1705V57.983C90.7617 57.0445 90.0009 56.2838 89.0625 56.2838H55.0781C54.1397 56.2838 53.3789 57.0445 53.3789 57.983V86.8697H66.9727L71.8438 85.9634L77.168 86.8697Z" fill="#FFAC37"/>
<path d="M89.0625 56.2838H72.0703V86.002L77.168 86.8697H89.0625C90.0009 86.8697 90.7617 86.1089 90.7617 85.1705V57.983C90.7617 57.0445 90.0009 56.2838 89.0625 56.2838Z" fill="#FFAC37"/>
<path d="M61.875 80.0728C60.9366 80.0728 60.1758 79.312 60.1758 78.3736V74.9752C60.1758 74.0367 60.9366 73.2759 61.875 73.2759C62.8134 73.2759 63.5742 74.0367 63.5742 74.9752V78.3736C63.5742 79.312 62.8134 80.0728 61.875 80.0728Z" fill="#FFF8EE"/>
<path d="M61.875 69.8775C60.9366 69.8775 60.1758 69.1167 60.1758 68.1783V64.7798C60.1758 63.8414 60.9366 63.0806 61.875 63.0806C62.8134 63.0806 63.5742 63.8414 63.5742 64.7798V68.1783C63.5742 69.1167 62.8134 69.8775 61.875 69.8775Z" fill="#FFF8EE"/>
<path d="M82.2656 80.0728C81.3272 80.0728 80.5664 79.312 80.5664 78.3736V74.9752C80.5664 74.0367 81.3272 73.2759 82.2656 73.2759C83.204 73.2759 83.9648 74.0367 83.9648 74.9752V78.3736C83.9648 79.312 83.204 80.0728 82.2656 80.0728Z" fill="white"/>
<path d="M82.2656 69.8775C81.3272 69.8775 80.5664 69.1167 80.5664 68.1783V64.7798C80.5664 63.8414 81.3272 63.0806 82.2656 63.0806C83.204 63.0806 83.9648 63.8414 83.9648 64.7798V68.1783C83.9648 69.1167 83.204 69.8775 82.2656 69.8775Z" fill="white"/>
<path d="M68.6719 69.8775C67.7335 69.8775 66.9727 69.1167 66.9727 68.1783V64.7798C66.9727 63.8414 67.7335 63.0806 68.6719 63.0806C69.6103 63.0806 70.3711 63.8414 70.3711 64.7798V68.1783C70.3711 69.1167 69.6103 69.8775 68.6719 69.8775Z" fill="#FFF8EE"/>
<path d="M75.4688 69.8775C74.5303 69.8775 73.7695 69.1167 73.7695 68.1783V64.7798C73.7695 63.8414 74.5303 63.0806 75.4688 63.0806C76.4072 63.0806 77.168 63.8414 77.168 64.7798V68.1783C77.168 69.1167 76.4072 69.8775 75.4688 69.8775Z" fill="white"/>
<path d="M75.4688 73.2759H68.6719C67.7335 73.2759 66.9727 74.0367 66.9727 74.9752V86.8697H70.3711L71.957 85.7369L73.7695 86.8697H77.168V74.9752C77.168 74.0367 76.4072 73.2759 75.4688 73.2759Z" fill="#FFF8EE"/>
<path d="M75.4688 73.2759H72.0703V85.8077L73.7695 86.8697H77.168V74.9752C77.168 74.0367 76.4072 73.2759 75.4688 73.2759Z" fill="white"/>
<path d="M70.3711 76.6744H73.7695V86.8697H70.3711V76.6744Z" fill="#FFAC37"/>
<path d="M72.0703 76.6744H73.7695V86.8697H72.0703V76.6744Z" fill="#FFAC37"/>
</g>
<defs>
<clipPath id="clip0_228_591">
<rect width="58" height="58" fill="white" transform="translate(32.875 29.1699)"/>
</clipPath>
</defs>
</svg>
