<svg width="60" height="60" viewBox="0 0 60 60" fill="none" xmlns="http://www.w3.org/2000/svg">
<path d="M29.9868 59.5709C26.1326 59.5709 22.3161 58.8117 18.7553 57.3368C15.1945 55.8618 11.959 53.7 9.23371 50.9747C6.50838 48.2493 4.34652 45.0139 2.87158 41.4531C1.39665 37.8923 0.637504 34.0758 0.637505 30.2216C0.637505 26.3674 1.39665 22.5509 2.87159 18.9901C4.34653 15.4293 6.50838 12.1938 9.23371 9.46852C11.959 6.74319 15.1945 4.58133 18.7553 3.10639C22.3161 1.63146 26.1326 0.872314 29.9868 0.872314L29.9868 30.2216V59.5709Z" fill="#E75026"/>
<circle cx="29.9851" cy="30.2216" r="21.899" fill="#FFF0DC"/>
<path fill-rule="evenodd" clip-rule="evenodd" d="M29.5172 19.133C28.1043 19.4066 27.2077 20.4741 27.139 21.9643L27.1112 22.5657L26.7409 22.6597C22.024 23.8568 17.8149 28.9292 17.8147 33.4166V33.6636H17.5526C16.9124 33.6636 16.6368 34.0194 16.6877 34.7807C16.8287 36.8927 18.3093 38.6632 20.4153 39.2382L20.8574 39.3588H29.9333H39.0093L39.4322 39.2459C41.409 38.7179 42.8022 37.2794 43.2017 35.354C43.4419 34.1965 43.1948 33.6636 42.4181 33.6636H42.1559V33.4492C42.1559 28.8974 37.5842 23.4573 33.048 22.6114L32.8598 22.5763L32.8329 21.9696C32.7519 20.1431 31.192 18.8086 29.5172 19.133ZM30.4276 20.747C30.9263 20.9169 31.2856 21.4456 31.2856 22.0094V22.2472H29.9853H28.685V22.0094C28.685 21.0752 29.5506 20.4482 30.4276 20.747ZM31.6497 23.9103C36.4009 24.7003 40.5956 29.179 40.5956 33.4619V33.6636H29.9853H19.3751L19.3753 33.4686C19.3812 27.8905 25.7518 22.9297 31.6497 23.9103ZM41.6102 35.341C41.3368 36.3229 40.3972 37.2777 39.3422 37.646L38.9052 37.7985L30.1032 37.8124C20.2663 37.8279 20.9115 37.851 20.1066 37.4541C19.3167 37.0647 18.5324 36.1292 18.3565 35.367L18.3235 35.224H29.9832H41.6428L41.6102 35.341Z" fill="black"/>
</svg>
