<svg width="27" height="19" viewBox="0 0 27 19" fill="none" xmlns="http://www.w3.org/2000/svg">
<path fill-rule="evenodd" clip-rule="evenodd" d="M25.0778 2.33412C25.4769 2.73322 25.7645 3.22991 25.9119 3.77473C26.7608 7.19177 26.5647 12.5885 25.9284 16.1374C25.781 16.6822 25.4934 17.1789 25.0943 17.578C24.6952 17.9771 24.1985 18.2647 23.6537 18.4121C21.6592 18.9561 13.6317 18.9561 13.6317 18.9561C13.6317 18.9561 5.60425 18.9561 3.60975 18.4121C3.06493 18.2647 2.56824 17.9771 2.16913 17.578C1.77003 17.1789 1.48245 16.6822 1.33502 16.1374C0.481177 12.7352 0.715244 7.33518 1.31854 3.79122C1.46597 3.2464 1.75355 2.7497 2.15265 2.3506C2.55175 1.9515 3.04844 1.66392 3.59326 1.5165C5.58777 0.972534 13.6152 0.956055 13.6152 0.956055C13.6152 0.956055 21.6427 0.956055 23.6372 1.50001C24.182 1.64744 24.6787 1.93502 25.0778 2.33412ZM17.7196 9.95605L11.0603 13.8132V6.0989L17.7196 9.95605Z" fill="white"/>
</svg>
