<svg width="124" height="123" viewBox="0 0 124 123" fill="none" xmlns="http://www.w3.org/2000/svg">
<rect x="11.875" y="11.1699" width="100" height="100" rx="20" fill="#FFE8C8"/>
<rect x="26.7578" y="0.169922" width="100" height="100" rx="20" transform="rotate(15 26.7578 0.169922)" fill="#FFE8C8" fill-opacity="0.5"/>
<g clip-path="url(#clip0_228_592)">
<path d="M59.886 55.0613H57.1094V57.8379H59.886C60.6528 57.8379 61.2744 57.2163 61.2744 56.4496C61.2744 55.6829 60.6528 55.0613 59.886 55.0613Z" fill="#FFB35C"/>
<path d="M59.886 64.7795H57.1094V67.5562H59.886C60.6528 67.5562 61.2744 66.9346 61.2744 66.1679C61.2744 65.4011 60.6528 64.7795 59.886 64.7795Z" fill="#FFB35C"/>
<path d="M58.4967 66.1679C58.4967 65.4012 57.8751 64.7796 57.1084 64.7796H56.3217V57.8379H57.1084C57.8751 57.8379 58.4967 57.2163 58.4967 56.4496C58.4967 55.6829 57.8751 55.0613 57.1084 55.0613H56.3217V51.4979C56.3217 50.7312 55.7001 50.1096 54.9333 50.1096C54.1666 50.1096 53.545 50.7312 53.545 51.4979V55.0613H46.6034V51.4979C46.6034 50.7312 45.9818 50.1096 45.215 50.1096C44.4483 50.1096 43.8267 50.7312 43.8267 51.4979V55.0613H40.2633C39.4966 55.0613 38.875 55.6829 38.875 56.4496C38.875 57.2163 39.4966 57.8379 40.2633 57.8379H43.8267V64.7796H40.2633C39.4966 64.7796 38.875 65.4012 38.875 66.1679C38.875 66.9346 39.4966 67.5562 40.2633 67.5562H43.8267V71.1196C43.8267 71.8863 44.4483 72.5079 45.215 72.5079C45.9818 72.5079 46.6034 71.8863 46.6034 71.1196V67.5562H53.545V71.1196C53.545 71.8863 54.1666 72.5079 54.9333 72.5079C55.7001 72.5079 56.3217 71.8863 56.3217 71.1196V67.5562H57.1084C57.8751 67.5562 58.4967 66.9346 58.4967 66.1679ZM53.545 64.7796H46.6034V57.8379H53.545V64.7796Z" fill="#FFAC37"/>
<path d="M80.7097 75.8399V42.3349C80.7097 40.0346 78.845 38.1699 76.5447 38.1699H64.0498C61.7495 38.1699 59.8848 40.0346 59.8848 42.3349C59.8848 44.6352 61.7495 46.4999 64.0498 46.4999V75.8399C61.7495 75.8399 59.8848 77.7046 59.8848 80.0049C59.8848 82.3052 61.7495 84.1699 64.0498 84.1699H80.7097C83.01 84.1699 84.8747 82.3052 84.8747 80.0049C84.8747 77.7046 83.01 75.8399 80.7097 75.8399Z" fill="#FFAC37"/>
<path d="M75.1571 78.7555V42.4738C75.1571 41.7071 74.5355 41.0854 73.7688 41.0854H64.0504C63.2837 41.0854 62.6621 41.7071 62.6621 42.4738C62.6621 43.2405 63.2837 43.8621 64.0504 43.8621H66.8271V78.7555H64.0504C63.2837 78.7555 62.6621 79.3771 62.6621 80.1438C62.6621 80.9105 63.2837 81.5321 64.0504 81.5321H77.9337C76.4003 81.5321 75.1571 80.289 75.1571 78.7555Z" fill="#FFBE40"/>
</g>
<defs>
<clipPath id="clip0_228_592">
<rect width="46" height="46" fill="white" transform="translate(38.875 38.1699)"/>
</clipPath>
</defs>
</svg>
