<svg width="25" height="20" viewBox="0 0 25 20" fill="none" xmlns="http://www.w3.org/2000/svg">
<path fill-rule="evenodd" clip-rule="evenodd" d="M24.6289 2.76031C23.7466 3.15228 22.797 3.41626 21.8011 3.53545C22.8178 2.92589 23.5986 1.96116 23.9657 0.811634C23.0154 1.3764 21.9603 1.78517 20.8396 2.00676C19.9412 1.05002 18.6605 0.45166 17.2454 0.45166C14.5264 0.45166 12.3217 2.65631 12.3217 5.37533C12.3217 5.7609 12.3657 6.13688 12.4497 6.49766C8.35719 6.29287 4.72943 4.3322 2.3008 1.3532C1.87682 2.08035 1.63444 2.9259 1.63444 3.82824C1.63444 5.53613 2.50238 7.04323 3.82469 7.92637C3.01675 7.90077 2.2584 7.67918 1.59364 7.31041V7.372C1.59364 9.75824 3.29193 11.7477 5.54298 12.2013C5.1302 12.3133 4.69503 12.3741 4.24626 12.3741C3.92869 12.3741 3.61991 12.3429 3.31913 12.2853C3.94548 14.2411 5.76456 15.6651 7.91882 15.705C6.23413 17.025 4.11107 17.8129 1.80403 17.8129C1.40565 17.8129 1.01368 17.7897 0.628906 17.7433C2.80796 19.14 5.39579 19.956 8.1764 19.956C17.2326 19.956 22.1851 12.4533 22.1851 5.94729C22.1851 5.7337 22.1811 5.52093 22.1707 5.31054C23.1338 4.61459 23.969 3.74744 24.6289 2.76031Z" fill="white"/>
</svg>
