<svg width="29" height="29" viewBox="0 0 29 29" fill="none" xmlns="http://www.w3.org/2000/svg">
<path d="M20.3157 25.1785L20.3041 25.1773C17.7275 25.1656 15.6406 23.0787 15.6406 20.5022C15.6406 17.9256 17.7275 15.8387 20.3041 15.8387C22.869 15.8387 24.9675 17.9256 24.9558 20.5022V20.4905C24.9558 23.0554 22.8573 25.1423 20.2924 25.154" stroke="white" stroke-width="1.8" stroke-linecap="round" stroke-linejoin="round"/>
<path d="M21.5758 20.4568H21.5642C21.5292 20.4568 21.5059 20.4684 21.5059 20.5034C21.5059 20.5267 21.5175 20.5501 21.5525 20.5501C21.5758 20.5384 21.5991 20.5267 21.5991 20.4918C21.598 20.4801 21.598 20.4801 21.5875 20.4801V20.4684C21.5875 20.4335 21.5642 20.4102 21.5292 20.4102C21.5175 20.4102 21.5175 20.4102 21.5175 20.4102" stroke="white" stroke-width="1.8" stroke-linecap="round" stroke-linejoin="round"/>
<path d="M19.0456 20.4567C19.0106 20.445 18.9873 20.4684 18.9873 20.5033C18.9756 20.5033 18.9756 20.5033 18.9756 20.5033H18.964C18.9523 20.5266 18.9756 20.55 19.0106 20.55C19.0339 20.55 19.0572 20.5266 19.0572 20.4917C19.0572 20.4567 19.0339 20.4334 18.9989 20.4334C18.9873 20.4322 18.9873 20.4334 18.9873 20.4334" stroke="white" stroke-width="1.8" stroke-linecap="round" stroke-linejoin="round"/>
<path d="M20.3046 11.1881H20.2929L14.7901 4.86915C14.0672 4.02973 12.8081 3.94812 11.9804 4.65929C11.8987 4.71758 11.8288 4.78753 11.7705 4.85749C9.91678 6.99101 7.84155 9.39268 6.2793 11.1648" stroke="white" stroke-width="1.8" stroke-linecap="round" stroke-linejoin="round"/>
<path d="M21.9482 16.143L22.5661 13.8579V13.8462C22.8692 12.7153 22.2047 11.5495 21.0738 11.2347C20.8873 11.1764 20.7007 11.1531 20.5142 11.1531H6.09251H6.08085C4.90333 11.1531 3.95898 12.0974 3.95898 13.2633C3.95898 13.4498 3.9823 13.6364 4.02894 13.8112L6.04587 21.2261L6.03422 21.2144C6.27905 22.1355 7.11847 22.765 8.07447 22.765H16.2122" stroke="white" stroke-width="1.8" stroke-linecap="round" stroke-linejoin="round"/>
</svg>
