<svg width="25" height="25" viewBox="0 0 25 25" fill="none" xmlns="http://www.w3.org/2000/svg">
<path d="M12.6289 2.61381C15.833 2.61381 16.2126 2.62605 17.4779 2.68378C18.6479 2.73713 19.2833 2.93262 19.7062 3.09696C20.2663 3.31465 20.666 3.57468 21.0859 3.99458C21.5059 4.41452 21.7659 4.81426 21.9836 5.37439C22.1479 5.79723 22.3434 6.43262 22.3968 7.60261C22.4545 8.86795 22.4667 9.2475 22.4667 12.4516C22.4667 15.6557 22.4545 16.0353 22.3968 17.3006C22.3434 18.4706 22.1479 19.106 21.9836 19.5289C21.7659 20.089 21.5059 20.4887 21.086 20.9086C20.666 21.3286 20.2663 21.5886 19.7062 21.8063C19.2833 21.9706 18.6479 22.1661 17.4779 22.2195C16.2128 22.2772 15.8333 22.2894 12.6289 22.2894C9.42454 22.2894 9.04508 22.2772 7.77988 22.2195C6.60989 22.1661 5.9745 21.9706 5.55165 21.8063C4.99152 21.5886 4.59178 21.3286 4.17188 20.9086C3.75199 20.4887 3.4919 20.089 3.27422 19.5289C3.10988 19.106 2.91439 18.4706 2.86104 17.3006C2.80331 16.0353 2.79106 15.6557 2.79106 12.4516C2.79106 9.2475 2.80331 8.86795 2.86104 7.60261C2.91439 6.43262 3.10988 5.79723 3.27422 5.37439C3.4919 4.81426 3.75194 4.41452 4.17188 3.99462C4.59178 3.57468 4.99152 3.31465 5.55165 3.09696C5.9745 2.93262 6.60989 2.73713 7.77988 2.68378C9.04523 2.62605 9.42478 2.61381 12.6289 2.61381ZM12.6289 0.45166C9.3699 0.45166 8.96125 0.465474 7.68132 0.523873C6.40406 0.582129 5.53174 0.785002 4.76845 1.08162C3.97934 1.38829 3.31013 1.7986 2.64297 2.46572C1.97585 3.13288 1.56554 3.80209 1.25891 4.59119C0.962249 5.35448 0.759376 6.2268 0.70112 7.50405C0.64272 8.78397 0.628906 9.19263 0.628906 12.4516C0.628906 15.7106 0.64272 16.1193 0.70112 17.3992C0.759376 18.6764 0.962249 19.5488 1.25891 20.312C1.56554 21.1012 1.97585 21.7704 2.64297 22.4375C3.31013 23.1046 3.97934 23.515 4.76845 23.8216C5.53174 24.1182 6.40406 24.3211 7.68132 24.3794C8.96125 24.4378 9.3699 24.4516 12.6289 24.4516C15.8879 24.4516 16.2966 24.4378 17.5765 24.3794C18.8538 24.3211 19.7261 24.1182 20.4894 23.8216C21.2785 23.515 21.9477 23.1046 22.6148 22.4375C23.282 21.7704 23.6923 21.1012 23.9989 20.312C24.2956 19.5488 24.4984 18.6764 24.5567 17.3992C24.6151 16.1193 24.6289 15.7106 24.6289 12.4516C24.6289 9.19263 24.6151 8.78397 24.5567 7.50405C24.4984 6.2268 24.2956 5.35448 23.9989 4.59119C23.6923 3.80209 23.282 3.13288 22.6148 2.46572C21.9477 1.7986 21.2785 1.38829 20.4894 1.08162C19.7261 0.785002 18.8538 0.582129 17.5765 0.523873C16.2966 0.465474 15.8879 0.45166 12.6289 0.45166Z" fill="white"/>
<path d="M12.6348 6.29517C9.23153 6.29517 6.47266 9.05403 6.47266 12.4573C6.47266 15.8606 9.23153 18.6194 12.6348 18.6194C16.0381 18.6194 18.797 15.8606 18.797 12.4573C18.797 9.05403 16.0381 6.29517 12.6348 6.29517ZM12.6348 16.4573C10.4257 16.4573 8.63481 14.6664 8.63481 12.4573C8.63481 10.2482 10.4257 8.45732 12.6348 8.45732C14.844 8.45732 16.6348 10.2482 16.6348 12.4573C16.6348 14.6664 14.844 16.4573 12.6348 16.4573Z" fill="white"/>
<path d="M20.4796 6.04793C20.4796 6.84318 19.8349 7.48791 19.0396 7.48791C18.2443 7.48791 17.5996 6.84318 17.5996 6.04793C17.5996 5.25264 18.2443 4.60791 19.0396 4.60791C19.8349 4.60791 20.4796 5.25264 20.4796 6.04793Z" fill="white"/>
</svg>
