<svg width="124" height="123" viewBox="0 0 124 123" fill="none" xmlns="http://www.w3.org/2000/svg">
<rect x="26.7578" y="0.169922" width="100" height="100" rx="20" transform="rotate(15 26.7578 0.169922)" fill="#FFE8C8" fill-opacity="0.5"/>
<rect x="11.875" y="11.1699" width="100" height="100" rx="20" fill="#FFE8C8"/>
<g clip-path="url(#clip0_228_593)">
<path d="M52.3874 59.6679C44.7358 58.9493 38.875 52.6046 38.875 44.9082V42.2129C38.875 39.9835 40.6886 38.1699 42.918 38.1699C45.1474 38.1699 46.9609 39.9835 46.9609 42.2129C46.9609 42.9564 47.565 43.5605 48.3086 43.5605H51.0938C51.8386 43.5605 52.4414 44.1633 52.4414 44.9082C52.4414 45.6531 51.8386 46.2559 51.0938 46.2559H48.3086C46.0792 46.2559 44.2656 44.4423 44.2656 42.2129C44.2656 41.4693 43.6615 40.8652 42.918 40.8652C42.1744 40.8652 41.5703 41.4693 41.5703 42.2129V44.9082C41.5703 51.2056 46.3809 56.3962 52.6401 56.9831C53.3811 57.0528 53.9246 57.7109 53.8562 58.4519C53.7865 59.1905 53.1324 59.7357 52.3874 59.6679Z" fill="#FB9333"/>
<path d="M69.9824 58.4519C69.9139 57.7109 70.4575 57.0529 71.1984 56.9831C77.4577 56.3962 82.1784 51.2056 82.1784 44.9082V42.2129C82.1784 41.4693 81.5743 40.8652 80.8307 40.8652C80.0872 40.8652 79.4831 41.4693 79.4831 42.2129C79.4831 44.4423 77.6695 46.2559 75.4401 46.2559H72.7448C71.9999 46.2559 71.3972 45.6531 71.3972 44.9082C71.3972 44.1633 71.9999 43.5605 72.7448 43.5605H75.4401C76.1837 43.5605 76.7878 42.9564 76.7878 42.2129C76.7878 39.9835 78.6014 38.1699 80.8307 38.1699C83.0601 38.1699 84.8737 39.9835 84.8737 42.2129V44.9082C84.8737 52.6046 79.1028 58.9493 71.4511 59.6679C70.7063 59.7357 70.0521 59.1906 69.9824 58.4519Z" fill="#FB9333"/>
<path d="M72.7461 38.1699H61.875H51.0938C50.3489 38.1699 49.7461 38.7727 49.7461 39.5176V52.9941C49.7461 58.1466 53.0218 62.6922 57.832 64.39V74.7363H61.875H65.918V64.39C70.7282 62.6923 74.0938 58.1466 74.0938 52.9941V39.5176C74.0938 38.7727 73.491 38.1699 72.7461 38.1699Z" fill="#FFDF40"/>
<path d="M65.918 64.39C70.7282 62.6923 74.0938 58.1466 74.0938 52.9941V39.5176C74.0938 38.7727 73.491 38.1699 72.7461 38.1699H61.875V74.7363H65.918V64.39Z" fill="#FFBE40"/>
<path d="M68.7574 48.5616C68.5982 48.0733 68.177 47.718 67.669 47.6443L64.5 47.1837L63.0826 44.312C62.8562 43.8514 62.3654 43.6211 61.8745 43.6211C61.3836 43.6211 60.8927 43.8514 60.6663 44.312L59.249 47.1837L56.0799 47.6443C55.5719 47.718 55.1507 48.0733 54.9915 48.5616C54.8336 49.0486 54.9652 49.5842 55.3324 49.9421L57.6263 52.1782L57.0853 55.3341C56.9985 55.8395 57.2065 56.3502 57.621 56.6515C58.0355 56.9542 58.5909 56.9937 59.0397 56.7542L61.8744 55.2657L64.7092 56.7541C65.1565 56.9913 65.7103 56.9566 66.1279 56.6514C66.5425 56.3501 66.7505 55.8394 66.6636 55.334L66.1226 52.1781L68.4165 49.9421C68.7837 49.5842 68.9153 49.0486 68.7574 48.5616Z" fill="#FFBE40"/>
<path d="M66.1285 56.6515C66.543 56.3502 66.751 55.8395 66.6641 55.3341L66.1232 52.1782L68.4171 49.9421C68.7842 49.5842 68.9159 49.0486 68.7579 48.5616C68.5987 48.0733 68.1775 47.718 67.6696 47.6443L64.5005 47.1837L63.0831 44.312C62.8567 43.8514 62.3659 43.6211 61.875 43.6211V55.2657L64.7098 56.7541C65.157 56.9914 65.7108 56.9567 66.1285 56.6515Z" fill="#FB9333"/>
<path d="M72.6562 78.7793H71.3086V74.7363C71.3086 73.9914 70.7058 73.3887 69.9609 73.3887H61.875H53.7891C53.0442 73.3887 52.4414 73.9914 52.4414 74.7363V78.7793H51.0938C50.3489 78.7793 49.7461 79.3821 49.7461 80.127V82.8223C49.7461 83.5672 50.3489 84.1699 51.0938 84.1699H61.875H72.6562C73.4011 84.1699 74.0039 83.5672 74.0039 82.8223V80.127C74.0039 79.3821 73.4011 78.7793 72.6562 78.7793Z" fill="#FB9333"/>
<path d="M74.0039 82.8223V80.127C74.0039 79.3821 73.4011 78.7793 72.6562 78.7793H71.3086V74.7363C71.3086 73.9914 70.7058 73.3887 69.9609 73.3887H61.875V84.1699H72.6562C73.4011 84.1699 74.0039 83.5672 74.0039 82.8223Z" fill="#FB9333"/>
<path d="M64.5703 77.4316H61.875H59.1797C58.4348 77.4316 57.832 78.0344 57.832 78.7793C57.832 79.5242 58.4348 80.127 59.1797 80.127H61.875H64.5703C65.3152 80.127 65.918 79.5242 65.918 78.7793C65.918 78.0344 65.3152 77.4316 64.5703 77.4316Z" fill="white"/>
<path d="M65.918 78.7793C65.918 78.0344 65.3152 77.4316 64.5703 77.4316H61.875V80.127H64.5703C65.3152 80.127 65.918 79.5242 65.918 78.7793Z" fill="white"/>
</g>
<defs>
<clipPath id="clip0_228_593">
<rect width="46" height="46" fill="white" transform="translate(38.875 38.1699)"/>
</clipPath>
</defs>
</svg>
