<svg width="15" height="16" viewBox="0 0 15 16" fill="none" xmlns="http://www.w3.org/2000/svg">
<g clip-path="url(#clip0_5_4418)">
<path d="M11.0816 2.66924C11.3484 2.53096 11.5333 2.23916 11.5333 1.90049C11.5333 1.67423 11.4494 1.45723 11.3001 1.29724C11.1507 1.13725 10.9482 1.04736 10.737 1.04736C10.5259 1.04736 10.3233 1.13725 10.174 1.29724C10.0247 1.45723 9.94078 1.67423 9.94078 1.90049C9.94078 2.24385 10.13 2.53799 10.4023 2.67393C10.0873 4.50205 9.60391 5.8626 7.80469 6.15322C7.80469 6.15322 8.28922 8.74893 10.5555 8.74893C12.8217 8.74893 13.0514 6.179 13.0514 6.179C11.2128 6.27978 11.0575 3.80361 11.0816 2.66924Z" fill="#F19534"/>
<path d="M4.54297 2.66924C4.27609 2.53096 4.09125 2.23916 4.09125 1.90049C4.09125 1.67423 4.17514 1.45723 4.32447 1.29724C4.47379 1.13725 4.67632 1.04736 4.8875 1.04736C5.09868 1.04736 5.30121 1.13725 5.45053 1.29724C5.59986 1.45723 5.68375 1.67423 5.68375 1.90049C5.68375 2.24385 5.49453 2.53799 5.22219 2.67393C5.53719 4.50205 6.02062 5.8626 7.81984 6.15322C7.81984 6.15322 7.33531 8.74893 5.06906 8.74893C2.80281 8.74893 2.57422 6.18018 2.57422 6.18018C4.41172 6.27979 4.56703 3.80361 4.54297 2.66924Z" fill="#F19534"/>
<path d="M10.5234 8.74941C10.5333 8.74941 10.5431 8.75059 10.553 8.75059C11.1775 8.75059 11.6467 8.55488 11.9989 8.27246L10.5234 8.74941Z" fill="#FFCA28"/>
<path d="M13.7853 2.08897C13.421 2.03624 13.0732 2.40772 13.0098 2.91632C12.9704 3.23389 13.0503 3.53038 13.2045 3.72139L12.942 4.88741C12.942 4.88741 12.5406 7.64249 10.5128 8.18624C8.89183 8.621 8.30449 5.44171 8.1623 4.45967C8.47074 4.29561 8.68402 3.95577 8.68402 3.56085C8.68402 3.00655 8.26511 2.55772 7.74777 2.55772C7.23042 2.55772 6.81152 3.00655 6.81152 3.56085C6.81152 3.95811 7.02808 4.30147 7.34199 4.46319C7.22933 5.43233 6.73277 8.50616 4.98277 8.18506C3.20652 7.85811 2.43105 4.65303 2.25167 3.78116C2.46495 3.59366 2.58417 3.26319 2.54042 2.90811C2.47698 2.39835 2.10073 2.03272 1.70042 2.09014C1.30011 2.14757 1.02777 2.60694 1.0912 3.11553C1.13714 3.48585 1.34933 3.77999 1.61511 3.89132L3.00636 13.1526C3.00636 13.1526 4.22042 14.1804 7.74777 14.1804C11.2751 14.1804 12.4892 13.1526 12.4892 13.1526L13.8837 3.86671C14.109 3.74014 14.2862 3.45538 14.33 3.10616C14.3945 2.59639 14.1506 2.14171 13.7853 2.08897Z" fill="#FFCA28"/>
<path d="M7.79188 11.8222C8.38023 11.8222 8.85719 11.213 8.85719 10.4616C8.85719 9.71021 8.38023 9.10107 7.79188 9.10107C7.20352 9.10107 6.72656 9.71021 6.72656 10.4616C6.72656 11.213 7.20352 11.8222 7.79188 11.8222Z" fill="#26A69A"/>
<path d="M7.79257 9.43722C7.83413 9.48644 7.87132 9.57668 7.79257 9.75246C7.71382 9.92824 7.28945 10.1661 7.21179 10.2142C7.13413 10.2634 7.08273 10.2411 7.05866 10.2212C6.94382 10.1228 6.98757 9.90012 7.06195 9.76418C7.22163 9.47004 7.5596 9.16652 7.79257 9.43722Z" fill="#69F0AE"/>
<path d="M7.71177 10.969C7.59146 11.0311 7.19662 11.2198 7.32677 11.4436C7.40334 11.576 7.56193 11.6323 7.7074 11.6393C7.85287 11.6463 7.99615 11.5971 8.12521 11.5256C8.73771 11.1858 8.78693 10.2928 8.66771 10.2248C8.54521 10.1545 8.46209 10.3362 8.39865 10.4135C8.20576 10.645 7.9724 10.8337 7.71177 10.969Z" fill="#00796B"/>
<path d="M13.6598 9.34769C13.8304 8.33636 13.196 8.08323 13.196 8.08323C13.196 8.08323 12.787 8.00355 12.5945 9.14144C12.402 10.2782 12.811 10.3578 12.811 10.3578C12.811 10.3578 13.4881 10.359 13.6598 9.34769Z" fill="#26A69A"/>
<path d="M13.3784 8.42922C13.5271 8.64251 13.351 8.95774 13.0656 9.16751C12.9814 9.22962 12.8698 9.20618 12.8534 9.15462C12.8075 9.00696 12.8271 8.83938 12.8884 8.69758C13.07 8.27219 13.3029 8.32141 13.3784 8.42922Z" fill="#69F0AE"/>
<path d="M1.81069 9.37845C1.63897 8.36829 2.27444 8.114 2.27444 8.114C2.27444 8.114 2.68351 8.03431 2.87601 9.1722C3.06851 10.3089 2.65944 10.3886 2.65944 10.3886C2.65944 10.3886 1.98132 10.3898 1.81069 9.37845Z" fill="#26A69A"/>
<path d="M2.46903 8.45779C2.61559 8.57498 2.55544 8.72849 2.44497 8.83514C2.31919 8.95818 2.22294 9.09295 2.11575 9.2324C2.09934 9.25349 2.08075 9.27693 2.0545 9.28279C2.00419 9.29451 1.96372 9.23943 1.94731 9.1867C1.90028 9.03904 1.90903 8.8656 1.97903 8.72967C2.17809 8.34178 2.41216 8.41209 2.46903 8.45779Z" fill="#69F0AE"/>
<path d="M11.6802 10.3276C11.6047 10.7882 11.2602 11.1081 10.9091 11.0424C10.558 10.9768 10.5099 10.5842 10.5853 10.1237C10.6608 9.66315 10.8303 9.31042 11.1803 9.37604C11.5314 9.44167 11.7557 9.86823 11.6802 10.3276Z" fill="#F44336"/>
<path d="M4.06894 10.3276C4.1444 10.7882 4.48893 11.1081 4.84003 11.0424C5.19112 10.9768 5.23925 10.5842 5.16378 10.1237C5.08831 9.66315 4.91878 9.31042 4.56878 9.37604C4.21878 9.44167 3.99456 9.86823 4.06894 10.3276Z" fill="#F44336"/>
<path d="M4.5784 10.0209C4.49855 10.117 4.30387 10.3104 4.23496 10.1627C4.1409 9.96118 4.27105 9.65649 4.4198 9.55571C4.56855 9.45493 4.68996 9.53462 4.71074 9.62485C4.7359 9.73969 4.64949 9.93423 4.5784 10.0209Z" fill="#FFA8A4"/>
<path d="M10.801 10.3147C10.6927 10.2971 10.6807 9.89753 10.9716 9.58347C11.1105 9.43347 11.3096 9.6116 11.2593 9.85183C11.2111 10.0803 10.999 10.3475 10.801 10.3147Z" fill="#FFA8A4"/>
<path d="M12.6789 11.6221C12.0237 11.9736 10.5209 12.91 7.74609 12.91C4.97125 12.91 3.46844 11.9736 2.81328 11.6221C2.81328 11.6221 2.57812 11.7568 2.57812 11.8975V12.9768C2.57812 13.1209 2.64922 13.2533 2.76516 13.3271C3.27703 13.6506 4.83672 14.4146 7.74719 14.4146C10.6577 14.4146 12.2173 13.6506 12.7292 13.3271C12.7861 13.2912 12.8333 13.24 12.8661 13.1785C12.8989 13.1171 12.9162 13.0475 12.9162 12.9768V11.8975C12.9141 11.7568 12.6789 11.6221 12.6789 11.6221Z" fill="#FFCA28"/>
<path d="M5.07156 13.1028C5.37781 13.1673 5.47078 13.1954 5.45 13.3782C5.40734 13.738 4.71062 13.6524 4.29828 13.5364C3.44625 13.2962 3.27344 13.0431 3.27344 12.8169C3.27344 12.6095 3.42219 12.5849 3.65188 12.6716C3.92641 12.7759 4.35078 12.9517 5.07156 13.1028Z" fill="#FFF59D"/>
<path d="M12.682 11.8594C12.682 11.8594 10.8697 12.9586 7.74922 12.9586C4.62875 12.9586 2.81641 11.8594 2.81641 11.8594" stroke="#F19534" stroke-miterlimit="10" stroke-linecap="round"/>
<path d="M3.69019 5.92233C4.27206 5.47702 4.58487 4.67897 4.61222 3.40866C4.6144 3.29382 4.64503 3.25983 4.703 3.2528C4.79597 3.24225 4.81128 3.33249 4.81019 3.39694C4.78394 4.76803 4.62097 5.62467 3.97565 6.10749C3.94394 6.13092 3.71753 6.27858 3.62128 6.17663C3.50644 6.0571 3.653 5.95046 3.69019 5.92233Z" fill="#FFCA28"/>
<path d="M4.22591 1.93489C4.20731 1.72278 4.25325 1.34075 4.77278 1.16731C4.92481 1.11692 5.01888 1.19661 5.03638 1.25872C5.08013 1.4134 4.95325 1.47434 4.89528 1.49426C4.49606 1.63255 4.47638 1.84583 4.39434 1.98176C4.31231 2.1177 4.23247 1.99934 4.22591 1.93489Z" fill="#FFCA28"/>
<path d="M9.2949 5.64124C9.821 5.14085 10.1699 4.58186 10.3996 3.30921C10.4204 3.19671 10.451 3.16624 10.5079 3.16858C10.6008 3.17092 10.6052 3.2635 10.5954 3.32678C10.4007 4.68381 10.2158 5.07053 9.56725 5.84045C9.49397 5.92717 9.31568 6.00569 9.21506 5.91545C9.12428 5.8346 9.22928 5.70452 9.2949 5.64124Z" fill="#FFCA28"/>
<path d="M10.0736 1.94514C10.055 1.73303 10.1009 1.351 10.6204 1.17756C10.7725 1.12717 10.8665 1.20686 10.884 1.26897C10.9278 1.42366 10.8009 1.4846 10.7429 1.50452C10.3437 1.6428 10.324 1.85608 10.242 1.99202C10.1611 2.12795 10.0801 2.0096 10.0736 1.94514Z" fill="#FFCA28"/>
<path d="M4.19599 8.50641C2.92505 7.88883 2.55099 6.2775 2.35192 5.57789C2.32567 5.48532 2.3388 5.39742 2.42521 5.3693C2.51161 5.34117 2.56302 5.40094 2.59036 5.49352C2.73474 6.00094 3.29583 7.69547 4.45411 8.17711C4.53833 8.21227 4.66958 8.29781 4.59849 8.4443C4.55146 8.53922 4.40052 8.60602 4.19599 8.50641Z" fill="#FFF59D"/>
<path d="M2.12816 2.99986C2.06691 2.86392 2.04176 2.73501 1.70816 2.58618C1.62394 2.54868 1.56816 2.46548 1.59113 2.37173C1.6141 2.27798 1.7016 2.20767 1.82847 2.23111C2.24082 2.30728 2.33051 2.75611 2.348 2.91196C2.36441 3.06196 2.19051 3.13579 2.12816 2.99986Z" fill="#FFF59D"/>
<path d="M11.3369 8.50641C12.6079 7.88883 12.9819 6.2775 13.181 5.57789C13.2072 5.48532 13.1941 5.39742 13.1077 5.3693C13.0213 5.34117 12.9699 5.40094 12.9426 5.49352C12.7982 6.00094 12.2371 7.69547 11.0788 8.17711C10.9946 8.21227 10.8633 8.29781 10.9344 8.4443C10.9815 8.53922 11.1324 8.60602 11.3369 8.50641Z" fill="#FFF59D"/>
<path d="M13.4045 2.99986C13.4658 2.86392 13.4909 2.73501 13.8245 2.58618C13.9087 2.54868 13.9645 2.46548 13.9415 2.37173C13.9186 2.27798 13.8311 2.20767 13.7042 2.23111C13.2919 2.30728 13.2022 2.75611 13.1847 2.91196C13.1683 3.06196 13.3433 3.13579 13.4045 2.99986Z" fill="#FFF59D"/>
<path d="M7.23644 3.57718C7.30316 3.4307 7.42019 3.23031 7.80191 3.14593C7.94847 3.11312 7.99113 3.04515 7.978 2.94202C7.95175 2.72757 7.70238 2.74281 7.56785 2.77679C7.11941 2.88929 7.01988 3.31585 7.00129 3.4846C6.98269 3.64515 7.17082 3.72367 7.23644 3.57718Z" fill="#FFF59D"/>
</g>
<defs>
<clipPath id="clip0_5_4418">
<rect width="14" height="15" fill="white" transform="translate(0.742188 0.11377)"/>
</clipPath>
</defs>
</svg>
